# xmcd
# Track frame offsets:
# 150
# 10905
# 21837
# 32727
# 42429
# 52979
# 60944
# 72404
# 82826
# 94986
# 105736
# 114733
# 125388
# 136353
# 147530
# 160887
# 168647
# 182677
# 190649
# 202111
#
# Disc length: 2840 seconds
# Revision: 4
# Processed by: cddbd v1.5.2PL0 Copyright (c) Steve Scherf et al.
# Submitted via: VisiTrax 2.11.3.279 - For more info visit www.synapsa.com
#
DISCID=190b1614
DTITLE=Chad Morgan - Sheilas, Drongos, Dills And Other Geezers 20 Chad Morga
DTITLE=n Greats
DYEAR=1991
DGENRE=Australian Country
TTITLE0=The Sheik Of Scrubby Creek
TTITLE1=The Bachelor's Warning
TTITLE2=The Shotgun Wedding
TTITLE3=The Dinkum Dill
TTITLE4=Nobody Else But Little Me
TTITLE5=The Fatal Wedding
TTITLE6=The Tough Cane Cutter From The Isis
TTITLE7=The Psychiatrists Joy From Kingaroy
TTITLE8=Who's Gonna Pay For The Wedding
TTITLE9=The Juvenile Delinquent
TTITLE10=Farmyard Yodel
TTITLE11=Since Dear Mother Died
TTITLE12=I'm My Own Grandpa
TTITLE13=A Model Husband
TTITLE14=The Bobba Wobba Wedding
TTITLE15=The Shearers Jamboree
TTITLE16=There's No Night Out At The Jail
TTITLE17=In A Cemetery
TTITLE18=Come In Sucker
TTITLE19=The Thrashing Machine
EXTD=1992 EMI Music Australia
EXTT0=
EXTT1=
EXTT2=
EXTT3=
EXTT4=
EXTT5=
EXTT6=
EXTT7=
EXTT8=
EXTT9=
EXTT10=
EXTT11=
EXTT12=
EXTT13=
EXTT14=
EXTT15=
EXTT16=
EXTT17=
EXTT18=
EXTT19=
PLAYORDER=
